<?xml version="1.0" encoding="UTF-8"?>
<!DOCTYPE svg PUBLIC "-//W3C//DTD SVG 1.1//EN" "http://www.w3.org/Graphics/SVG/1.1/DTD/svg11.dtd">
<!-- Creator: CorelDRAW -->
<svg xmlns="http://www.w3.org/2000/svg" xml:space="preserve" width="2.032mm" height="1.6471mm" version="1.1" style="shape-rendering:geometricPrecision; text-rendering:geometricPrecision; image-rendering:optimizeQuality; fill-rule:evenodd; clip-rule:evenodd"
viewBox="0 0 189.88 153.91"
 xmlns:xlink="http://www.w3.org/1999/xlink"
 xmlns:xodm="http://www.corel.com/coreldraw/odm/2003">
 <defs>
  <style type="text/css">
   <![CDATA[
    .fil0 {fill:#fff}
   ]]>
  </style>
 </defs>
 <g id="Layer_x0020_1">
  <metadata id="CorelCorpID_0Corel-Layer"/>
  <path class="fil0" d="M118.38 95.84c-2.42,-2.41 -5.25,-3.86 -8.66,-3.91l-28.74 0c-3.55,-0.06 -6.96,1.34 -9.48,3.82l-34.41 34.45 23.82 23.7 31.75 -31.75c1.41,-1.33 3.31,-1.39 4.7,-0.06l31.7 31.71 23.83 -23.7 -34.45 -34.27 -0.02 0 -0.02 0.01zm71.49 -2.92l-42.17 -42.2c-2.48,-2.45 -5.54,-4.1 -9.04,-4.1l-40.66 0 19.34 -19.24c2.04,-2.04 1.85,-5.16 -0.19,-7.2l-18.69 -18.7c-2.04,-2.04 -5,-1.95 -7.05,0.08l-18.69 18.71c-2.04,2.04 -2.35,5.05 -0.3,7.08l19.37 19.24 -40.68 0c-3.48,0 -6.45,1.76 -8.92,4.21l-42.21 42.23 24.24 24.15 67.86 -67.86c1.54,-1.53 4.2,-1.6 5.74,-0.08l67.8 67.78 24.24 -24.11z"/>
 </g>
</svg>
