<svg xmlns="http://www.w3.org/2000/svg" viewBox="0 0 512 512" width="100%" height="100%">
  <style>
    .document { fill: #f1f3f9; }
    .page-lines { fill: #dfe3f1; }
    .avatar { fill: #e6e9f4; }
    .avatar-border { fill: #d0d4e4; }
    .primary { fill: rgba(249, 66, 58, 0.9); }
    .secondary { fill: rgba(249, 66, 58, 0.6); }
    .tertiary { fill: rgba(249, 66, 58, 0.3); }
  </style>

  <!-- Document background -->
  <rect class="document" x="128" y="96" width="256" height="320" rx="16" ry="16"/>
  
  <!-- Document lines -->
  <rect class="page-lines" x="160" y="148" width="192" height="8" rx="4" ry="4"/>
  <rect class="page-lines" x="160" y="172" width="192" height="8" rx="4" ry="4"/>
  <rect class="page-lines" x="160" y="196" width="192" height="8" rx="4" ry="4"/>
  <rect class="page-lines" x="160" y="220" width="150" height="8" rx="4" ry="4"/>
  
  <rect class="page-lines" x="160" y="268" width="192" height="8" rx="4" ry="4"/>
  <rect class="page-lines" x="160" y="292" width="192" height="8" rx="4" ry="4"/>
  <rect class="page-lines" x="160" y="316" width="126" height="8" rx="4" ry="4"/>
  
  <!-- Profile avatar placeholder -->
  <circle class="avatar-border" cx="256" cy="372" r="28"/>
  <circle class="avatar" cx="256" cy="372" r="24"/>
  
  <!-- No data indicators -->
  <circle class="tertiary" cx="256" cy="96" r="24"/>
  <circle class="secondary" cx="128" cy="140" r="16"/>
  <circle class="primary" cx="384" cy="220" r="20"/>
  <circle class="secondary" cx="180" cy="400" r="12"/>
  <circle class="tertiary" cx="380" cy="350" r="18"/>
</svg> 