<?xml version="1.0" encoding="UTF-8"?>
<!DOCTYPE svg PUBLIC "-//W3C//DTD SVG 1.1//EN" "http://www.w3.org/Graphics/SVG/1.1/DTD/svg11.dtd">
<!-- Creator: CorelDRAW -->
<svg xmlns="http://www.w3.org/2000/svg" xml:space="preserve" width="128.393mm" height="104.066mm" version="1.1" style="shape-rendering:geometricPrecision; text-rendering:geometricPrecision; image-rendering:optimizeQuality; fill-rule:evenodd; clip-rule:evenodd"
viewBox="0 0 12825.08 10395.08"
 xmlns:xlink="http://www.w3.org/1999/xlink"
 xmlns:xodm="http://www.corel.com/coreldraw/odm/2003">
 <defs>
  <style type="text/css">
   <![CDATA[
    .fil0 {fill:black}
   ]]>
  </style>
 </defs>
 <g id="Layer_x0020_1">
  <metadata id="CorelCorpID_0Corel-Layer"/>
  <path class="fil0" d="M7996.14 6473.4c-163.37,-163.37 -354.92,-260.91 -585.24,-264.41l-1941.45 0c-239.75,-3.53 -470.09,90.48 -640.51,258.54l-2324.56 2326.93 1608.85 1600.62 2144.77 -2144.76c95.2,-89.32 223.29,-94.02 317.31,-3.54l2141.23 2141.23 1608.88 -1600.62 -2326.92 -2315.17 -1.2 0 -1.17 1.17zm4828.94 -197.44l-2848.71 -2849.87c-166.86,-165.7 -373.7,-277.36 -609.92,-277.36l-2746.47 0 1306.84 -1299.78c137.49,-137.52 124.56,-347.85 -12.93,-485.37l-1262.2 -1263.34c-137.49,-137.52 -337.3,-131.61 -475.94,5.86l-1262.2 1263.37c-137.49,137.49 -158.64,340.79 -19.96,478.31l1308.01 1299.78 -2747.67 0c-235.02,0 -436.01,118.7 -602.87,284.39l-2851.06 2852.23 1637.07 1631.21 4583.32 -4583.31c104.6,-103.44 284.39,-108.14 387.83,-5.89l4579.78 4578.61 1637.07 -1628.84z"/>
 </g>
</svg>
